<svg width="24.000000" height="24.000000" viewBox="0 0 24 24" fill="none" xmlns="http://www.w3.org/2000/svg" xmlns:xlink="http://www.w3.org/1999/xlink">
	<desc>
			Created with Pixso.
	</desc>
	<defs>
		<clipPath id="clip182_3789">
			<rect id="call_FILL1_wght400_GRAD0_opsz48 1" width="24.000000" height="24.000000" fill="white" fill-opacity="0"/>
		</clipPath>
	</defs>
	<rect id="call_FILL1_wght400_GRAD0_opsz48 1" width="24.000000" height="24.000000" fill="#FFFFFF" fill-opacity="0"/>
	<g clip-path="url(#clip182_3789)">
		<path id="Vector" d="M19.875 21C17.8417 21 15.8208 20.5 13.8125 19.5C11.8042 18.5 10 17.2 8.39999 15.6C6.79999 14 5.5 12.1958 4.5 10.1875C3.5 8.1792 3 6.15833 3 4.125C3 3.80835 3.10834 3.54163 3.32501 3.32495C3.54166 3.10828 3.80832 3 4.125 3L7.625 3C7.85834 3 8.0625 3.07922 8.23749 3.23755C8.41251 3.39587 8.52499 3.60828 8.57501 3.875L9.25 7.02502C9.28333 7.2583 9.27917 7.47083 9.23749 7.66248C9.19583 7.85413 9.10834 8.01672 8.97501 8.15002L6.47501 10.675C7.40833 12.225 8.45416 13.575 9.61249 14.725C10.7708 15.875 12.0833 16.85 13.55 17.65L15.925 15.2C16.0917 15.0167 16.2833 14.8875 16.5 14.8125C16.7167 14.7375 16.9333 14.725 17.15 14.775L20.125 15.425C20.375 15.475 20.5833 15.6 20.75 15.8C20.9167 16 21 16.2333 21 16.5L21 19.875C21 20.1917 20.8917 20.4584 20.675 20.675C20.4583 20.8917 20.1917 21 19.875 21Z" fill="#929DAF" fill-opacity="1.000000" fill-rule="nonzero"/>
	</g>
</svg>
