<svg width="72.000000" height="72.000000" viewBox="0 0 72 72" fill="none" xmlns="http://www.w3.org/2000/svg" xmlns:xlink="http://www.w3.org/1999/xlink">
	<desc>
			Created with Pixso.
	</desc>
	<defs>
		<clipPath id="clip182_3868">
			<rect id="location_on_FILL0_wght700_GRAD0_opsz48 1" width="42.666668" height="42.666668" transform="translate(14.222656 16.000000)" fill="white" fill-opacity="0"/>
		</clipPath>
	</defs>
	<circle id="Ellipse 6" cx="36.000000" cy="36.000000" r="36.000000" fill="#72B3EA" fill-opacity="1.000000"/>
	<rect id="location_on_FILL0_wght700_GRAD0_opsz48 1" width="42.666668" height="42.666668" transform="translate(14.222656 16.000000)" fill="#FFFFFF" fill-opacity="0"/>
	<g clip-path="url(#clip182_3868)">
		<path id="Vector" d="M35.5449 37.1556C36.4707 37.1556 37.2666 36.8259 37.9336 36.1666C38.6006 35.5073 38.9336 34.7147 38.9336 33.7888C38.9336 32.863 38.6045 32.0668 37.9443 31.4C37.2852 30.7334 36.4932 30.4 35.5674 30.4C34.6406 30.4 33.8447 30.7297 33.1777 31.389C32.5117 32.0483 32.1777 32.8409 32.1777 33.7668C32.1777 34.6926 32.5078 35.4889 33.167 36.1556C33.8262 36.8223 34.6191 37.1556 35.5449 37.1556ZM35.5557 50.5779C39.2402 47.1901 41.9619 44.1177 43.7197 41.3604C45.4775 38.6031 46.3555 36.1895 46.3555 34.119C46.3555 30.8545 45.3145 28.1815 43.2314 26.1001C41.1484 24.0186 38.5928 22.9778 35.5664 22.9778C32.5391 22.9778 29.9805 24.0195 27.8906 26.1028C25.8008 28.186 24.7559 30.8615 24.7559 34.1288C24.7559 36.2059 25.6572 38.6157 27.46 41.3582C29.2627 44.1005 31.9619 47.1737 35.5557 50.5779ZM35.5674 55.1556C35.2334 55.1556 34.9111 55.1038 34.6006 55C34.2891 54.8964 34.0156 54.7408 33.7783 54.5333C29.334 50.5646 26.0225 46.8998 23.8447 43.5392C21.667 40.1786 20.5781 37.0433 20.5781 34.1334C20.5781 29.4586 22.083 25.7344 25.0938 22.9606C28.1035 20.1869 31.5898 18.8 35.5518 18.8C39.5137 18.8 43.001 20.1869 46.0137 22.9606C49.0273 25.7344 50.5332 29.4586 50.5332 34.1334C50.5332 37.0371 49.4443 40.1708 47.2666 43.5345C45.0889 46.8982 41.7783 50.5646 37.334 54.5333C37.0967 54.7408 36.8262 54.8964 36.5225 55C36.2188 55.1038 35.9004 55.1556 35.5674 55.1556Z" fill="#F4FAFF" fill-opacity="1.000000" fill-rule="nonzero"/>
	</g>
</svg>
